<svg width="692" height="645" viewBox="0 0 692 645" fill="none" xmlns="http://www.w3.org/2000/svg">
<path d="M412.997 487.5H410.997V506H412.997V487.5Z" fill="#F2F2F2"/>
<path d="M419.997 182.5H417.997V201H419.997V182.5Z" fill="#F2F2F2"/>
<path d="M8.99701 258.5H6.99701V277H8.99701V258.5Z" fill="#F2F2F2"/>
<path d="M539.997 378.5H537.997V397H539.997V378.5Z" fill="#F2F2F2"/>
<path d="M600.997 378.5H598.997V397H600.997V378.5Z" fill="#F2F2F2"/>
<path d="M560.997 270H558.997V288.5H560.997V270Z" fill="#F2F2F2"/>
<path d="M0 173V644H436V173H0ZM218 207C215.033 207 212.133 206.12 209.666 204.472C207.2 202.824 205.277 200.481 204.142 197.74C203.007 194.999 202.709 191.983 203.288 189.074C203.867 186.164 205.296 183.491 207.393 181.393C209.491 179.296 212.164 177.867 215.074 177.288C217.983 176.709 220.999 177.007 223.74 178.142C226.481 179.277 228.824 181.2 230.472 183.666C232.12 186.133 233 189.033 233 192C233 195.978 231.42 199.794 228.607 202.607C225.794 205.42 221.978 207 218 207V207Z" fill="#3F3D56"/>
<path d="M692 643H0V645H692V643Z" fill="#3F3D56"/>
<path d="M277.997 271.5H48.997C47.1405 271.5 45.36 270.763 44.0473 269.45C42.7345 268.137 41.997 266.357 41.997 264.5C41.997 262.643 42.7345 260.863 44.0473 259.55C45.36 258.238 47.1405 257.5 48.997 257.5H277.997C279.853 257.5 281.634 258.238 282.947 259.55C284.26 260.863 284.997 262.643 284.997 264.5C284.997 266.357 284.26 268.137 282.947 269.45C281.634 270.763 279.853 271.5 277.997 271.5V271.5Z" fill="#F2F2F2"/>
<path d="M277.997 343.5H48.997C47.1405 343.5 45.36 342.763 44.0473 341.45C42.7345 340.137 41.997 338.357 41.997 336.5C41.997 334.643 42.7345 332.863 44.0473 331.55C45.36 330.238 47.1405 329.5 48.997 329.5H277.997C279.853 329.5 281.634 330.238 282.947 331.55C284.26 332.863 284.997 334.643 284.997 336.5C284.997 338.357 284.26 340.137 282.947 341.45C281.634 342.763 279.853 343.5 277.997 343.5Z" fill="#F2F2F2"/>
<path d="M277.997 415.5H48.997C47.1405 415.5 45.36 414.763 44.0473 413.45C42.7345 412.137 41.997 410.357 41.997 408.5C41.997 406.643 42.7345 404.863 44.0473 403.55C45.36 402.238 47.1405 401.5 48.997 401.5H277.997C279.853 401.5 281.634 402.238 282.947 403.55C284.26 404.863 284.997 406.643 284.997 408.5C284.997 410.357 284.26 412.137 282.947 413.45C281.634 414.763 279.853 415.5 277.997 415.5Z" fill="#F2F2F2"/>
<path d="M277.997 487.5H48.997C47.1405 487.5 45.36 486.763 44.0473 485.45C42.7345 484.137 41.997 482.357 41.997 480.5C41.997 478.643 42.7345 476.863 44.0473 475.55C45.36 474.238 47.1405 473.5 48.997 473.5H277.997C279.853 473.5 281.634 474.238 282.947 475.55C284.26 476.863 284.997 478.643 284.997 480.5C284.997 482.357 284.26 484.137 282.947 485.45C281.634 486.763 279.853 487.5 277.997 487.5V487.5Z" fill="#F2F2F2"/>
<path d="M277.997 559.5H48.997C47.1405 559.5 45.36 558.763 44.0473 557.45C42.7345 556.137 41.997 554.357 41.997 552.5C41.997 550.643 42.7345 548.863 44.0473 547.55C45.36 546.238 47.1405 545.5 48.997 545.5H277.997C279.853 545.5 281.634 546.238 282.947 547.55C284.26 548.863 284.997 550.643 284.997 552.5C284.997 554.357 284.26 556.137 282.947 557.45C281.634 558.763 279.853 559.5 277.997 559.5Z" fill="#F2F2F2"/>
<path d="M237.997 271.5H47.997C46.1405 271.5 44.36 270.763 43.0473 269.45C41.7345 268.137 40.997 266.357 40.997 264.5C40.997 262.643 41.7345 260.863 43.0473 259.55C44.36 258.238 46.1405 257.5 47.997 257.5H237.997C239.853 257.5 241.634 258.238 242.947 259.55C244.26 260.863 244.997 262.643 244.997 264.5C244.997 266.357 244.26 268.137 242.947 269.45C241.634 270.763 239.853 271.5 237.997 271.5V271.5Z" fill="#F9A826"/>
<path d="M178.997 343.5H47.997C46.1405 343.5 44.36 342.763 43.0473 341.45C41.7345 340.137 40.997 338.357 40.997 336.5C40.997 334.643 41.7345 332.863 43.0473 331.55C44.36 330.238 46.1405 329.5 47.997 329.5H178.997C180.853 329.5 182.634 330.238 183.947 331.55C185.26 332.863 185.997 334.643 185.997 336.5C185.997 338.357 185.26 340.137 183.947 341.45C182.634 342.763 180.853 343.5 178.997 343.5Z" fill="#F9A826"/>
<path d="M106.997 415.5H47.997C46.1405 415.5 44.36 414.763 43.0473 413.45C41.7345 412.137 40.997 410.357 40.997 408.5C40.997 406.643 41.7345 404.863 43.0473 403.55C44.36 402.238 46.1405 401.5 47.997 401.5H106.997C108.854 401.5 110.634 402.238 111.947 403.55C113.26 404.863 113.997 406.643 113.997 408.5C113.997 410.357 113.26 412.137 111.947 413.45C110.634 414.763 108.854 415.5 106.997 415.5V415.5Z" fill="#F9A826"/>
<path d="M255.997 487.5H47.997C46.1405 487.5 44.36 486.763 43.0473 485.45C41.7345 484.137 40.997 482.357 40.997 480.5C40.997 478.643 41.7345 476.863 43.0473 475.55C44.36 474.238 46.1405 473.5 47.997 473.5H255.997C257.853 473.5 259.634 474.238 260.947 475.55C262.26 476.863 262.997 478.643 262.997 480.5C262.997 482.357 262.26 484.137 260.947 485.45C259.634 486.763 257.853 487.5 255.997 487.5V487.5Z" fill="#F9A826"/>
<path d="M209.997 559.5H47.997C46.1405 559.5 44.36 558.763 43.0473 557.45C41.7345 556.137 40.997 554.357 40.997 552.5C40.997 550.643 41.7345 548.863 43.0473 547.55C44.36 546.238 46.1405 545.5 47.997 545.5H209.997C211.853 545.5 213.634 546.238 214.947 547.55C216.26 548.863 216.997 550.643 216.997 552.5C216.997 554.357 216.26 556.137 214.947 557.45C213.634 558.763 211.853 559.5 209.997 559.5V559.5Z" fill="#F9A826"/>
<path d="M372.997 257.5H370.997V271.5H372.997V257.5Z" fill="#F9A826"/>
<path d="M387.997 272.5C386.415 272.5 384.868 272.031 383.552 271.152C382.237 270.273 381.211 269.023 380.606 267.561C380 266.1 379.842 264.491 380.151 262.939C380.459 261.387 381.221 259.962 382.34 258.843C383.459 257.724 384.884 256.962 386.436 256.654C387.988 256.345 389.597 256.503 391.058 257.109C392.52 257.714 393.77 258.74 394.649 260.055C395.528 261.371 395.997 262.918 395.997 264.5C395.994 266.621 395.151 268.654 393.651 270.154C392.151 271.654 390.118 272.498 387.997 272.5V272.5ZM387.997 258.5C386.81 258.5 385.65 258.852 384.664 259.511C383.677 260.17 382.908 261.108 382.454 262.204C382 263.3 381.881 264.507 382.112 265.671C382.344 266.834 382.915 267.904 383.754 268.743C384.593 269.582 385.662 270.153 386.826 270.385C387.99 270.616 389.197 270.497 390.293 270.043C391.389 269.589 392.326 268.82 392.986 267.833C393.645 266.847 393.997 265.687 393.997 264.5C393.995 262.909 393.362 261.384 392.238 260.259C391.113 259.134 389.588 258.502 387.997 258.5V258.5Z" fill="#F9A826"/>
<path d="M372.997 329.5H370.997V343.5H372.997V329.5Z" fill="#F9A826"/>
<path d="M387.997 344.5C386.415 344.5 384.868 344.031 383.552 343.152C382.237 342.273 381.211 341.023 380.606 339.561C380 338.1 379.842 336.491 380.151 334.939C380.459 333.387 381.221 331.962 382.34 330.843C383.459 329.724 384.884 328.962 386.436 328.654C387.988 328.345 389.597 328.503 391.058 329.109C392.52 329.714 393.77 330.74 394.649 332.055C395.528 333.371 395.997 334.918 395.997 336.5C395.994 338.621 395.151 340.654 393.651 342.154C392.151 343.654 390.118 344.498 387.997 344.5ZM387.997 330.5C386.81 330.5 385.65 330.852 384.664 331.511C383.677 332.17 382.908 333.108 382.454 334.204C382 335.3 381.881 336.507 382.112 337.671C382.344 338.834 382.915 339.904 383.754 340.743C384.593 341.582 385.662 342.153 386.826 342.385C387.99 342.616 389.197 342.497 390.293 342.043C391.389 341.589 392.326 340.82 392.986 339.833C393.645 338.847 393.997 337.687 393.997 336.5C393.995 334.909 393.362 333.384 392.238 332.259C391.113 331.134 389.588 330.502 387.997 330.5V330.5Z" fill="#F9A826"/>
<path d="M372.997 401.5H370.997V415.5H372.997V401.5Z" fill="#F9A826"/>
<path d="M387.997 416.5C386.415 416.5 384.868 416.031 383.552 415.152C382.237 414.273 381.211 413.023 380.606 411.561C380 410.1 379.842 408.491 380.151 406.939C380.459 405.387 381.221 403.962 382.34 402.843C383.459 401.724 384.884 400.962 386.436 400.654C387.988 400.345 389.597 400.503 391.058 401.109C392.52 401.714 393.77 402.74 394.649 404.055C395.528 405.371 395.997 406.918 395.997 408.5C395.994 410.621 395.151 412.654 393.651 414.154C392.151 415.654 390.118 416.498 387.997 416.5V416.5ZM387.997 402.5C386.81 402.5 385.65 402.852 384.664 403.511C383.677 404.17 382.908 405.108 382.454 406.204C382 407.3 381.881 408.507 382.112 409.671C382.344 410.834 382.915 411.904 383.754 412.743C384.593 413.582 385.662 414.153 386.826 414.385C387.99 414.616 389.197 414.497 390.293 414.043C391.389 413.589 392.326 412.82 392.986 411.833C393.645 410.847 393.997 409.687 393.997 408.5C393.995 406.909 393.362 405.384 392.238 404.259C391.113 403.134 389.588 402.502 387.997 402.5V402.5Z" fill="#F9A826"/>
<path d="M372.997 473.5H370.997V487.5H372.997V473.5Z" fill="#F9A826"/>
<path d="M387.997 488.5C386.415 488.5 384.868 488.031 383.552 487.152C382.237 486.273 381.211 485.023 380.606 483.561C380 482.1 379.842 480.491 380.151 478.939C380.459 477.387 381.221 475.962 382.34 474.843C383.459 473.724 384.884 472.962 386.436 472.654C387.988 472.345 389.597 472.503 391.058 473.109C392.52 473.714 393.77 474.74 394.649 476.055C395.528 477.371 395.997 478.918 395.997 480.5C395.994 482.621 395.151 484.654 393.651 486.154C392.151 487.654 390.118 488.498 387.997 488.5V488.5ZM387.997 474.5C386.81 474.5 385.65 474.852 384.664 475.511C383.677 476.17 382.908 477.108 382.454 478.204C382 479.3 381.881 480.507 382.112 481.671C382.344 482.834 382.915 483.904 383.754 484.743C384.593 485.582 385.662 486.153 386.826 486.385C387.99 486.616 389.197 486.497 390.293 486.043C391.389 485.589 392.326 484.82 392.986 483.833C393.645 482.847 393.997 481.687 393.997 480.5C393.995 478.909 393.362 477.384 392.238 476.259C391.113 475.134 389.588 474.502 387.997 474.5Z" fill="#F9A826"/>
<path d="M372.997 545.5H370.997V559.5H372.997V545.5Z" fill="#F9A826"/>
<path d="M387.997 560.5C386.415 560.5 384.868 560.031 383.552 559.152C382.237 558.273 381.211 557.023 380.606 555.561C380 554.1 379.842 552.491 380.151 550.939C380.459 549.387 381.221 547.962 382.34 546.843C383.459 545.724 384.884 544.962 386.436 544.654C387.988 544.345 389.597 544.503 391.058 545.109C392.52 545.714 393.77 546.74 394.649 548.055C395.528 549.371 395.997 550.918 395.997 552.5C395.994 554.621 395.151 556.654 393.651 558.154C392.151 559.654 390.118 560.498 387.997 560.5V560.5ZM387.997 546.5C386.81 546.5 385.65 546.852 384.664 547.511C383.677 548.17 382.908 549.108 382.454 550.204C382 551.3 381.881 552.507 382.112 553.671C382.344 554.834 382.915 555.904 383.754 556.743C384.593 557.582 385.662 558.153 386.826 558.385C387.99 558.616 389.197 558.497 390.293 558.043C391.389 557.589 392.326 556.82 392.986 555.833C393.645 554.847 393.997 553.687 393.997 552.5C393.995 550.909 393.362 549.384 392.238 548.259C391.113 547.134 389.588 546.502 387.997 546.5Z" fill="#F9A826"/>
<path d="M387.997 268.5C390.206 268.5 391.997 266.709 391.997 264.5C391.997 262.291 390.206 260.5 387.997 260.5C385.788 260.5 383.997 262.291 383.997 264.5C383.997 266.709 385.788 268.5 387.997 268.5Z" fill="#F9A826"/>
<path d="M387.997 484.5C390.206 484.5 391.997 482.709 391.997 480.5C391.997 478.291 390.206 476.5 387.997 476.5C385.788 476.5 383.997 478.291 383.997 480.5C383.997 482.709 385.788 484.5 387.997 484.5Z" fill="#F9A826"/>
<path d="M387.997 556.5C390.206 556.5 391.997 554.709 391.997 552.5C391.997 550.291 390.206 548.5 387.997 548.5C385.788 548.5 383.997 550.291 383.997 552.5C383.997 554.709 385.788 556.5 387.997 556.5Z" fill="#F9A826"/>
<path d="M218.497 199C222.363 199 225.497 195.866 225.497 192C225.497 188.134 222.363 185 218.497 185C214.631 185 211.497 188.134 211.497 192C211.497 195.866 214.631 199 218.497 199Z" fill="#3F3D56"/>
<path d="M218.497 14C222.363 14 225.497 10.866 225.497 7C225.497 3.13401 222.363 0 218.497 0C214.631 0 211.497 3.13401 211.497 7C211.497 10.866 214.631 14 218.497 14Z" fill="#3F3D56"/>
<path d="M219.497 6.99994H217.497V192H219.497V6.99994Z" fill="#3F3D56"/>
<path d="M623.614 384.479V409.254C623.614 409.254 629.578 449.169 629.578 484.037C629.578 518.906 619.943 600.112 619.943 600.112C619.943 600.112 600.674 606.994 599.297 596.442C597.921 585.89 594.251 529.917 594.251 521.658C594.251 513.4 578.193 450.545 578.193 450.545L568.1 520.282C568.1 520.282 571.311 602.865 568.1 605.159C564.888 607.453 549.289 611.582 547.454 607.453C545.619 603.324 535.984 514.777 535.984 514.777C535.984 514.777 528.184 399.16 532.772 392.279C537.36 385.397 541.489 379.891 541.489 379.891C541.489 379.891 607.097 363.833 623.614 384.479Z" fill="#2F2E41"/>
<path d="M617.649 597.359L618.8 604.838C619.185 607.39 619.436 609.959 619.552 612.537C619.731 616.294 620.356 622.082 622.497 623C625.709 624.376 646.553 641.956 631.872 642.873C617.19 643.791 609.846 645.376 605.497 642C600.356 638.008 606.179 639.816 603.885 639.816C601.591 639.816 598.839 639.816 597.921 636.145C597.003 632.475 599.297 626.052 599.297 626.052V597.359H617.649Z" fill="#2F2E41"/>
<path d="M549.145 597L547.995 604.479C547.609 607.03 547.358 609.6 547.243 612.178C547.064 615.935 546.438 621.723 544.297 622.641C541.086 624.017 520.241 641.597 534.923 642.514C549.604 643.432 556.949 645.017 561.297 641.641C566.439 637.649 560.615 639.456 562.909 639.456C565.203 639.456 567.956 639.456 568.873 635.786C569.791 632.116 567.497 625.693 567.497 625.693V597H549.145Z" fill="#2F2E41"/>
<path d="M562.135 185.362C562.135 185.362 569.935 204.632 575.44 207.843C580.946 211.055 578.193 225.736 578.193 225.736L564.429 245.006H553.418L540.113 222.066C540.113 222.066 539.195 206.926 536.443 203.255C533.69 199.585 562.135 185.362 562.135 185.362Z" fill="#FFB9B9"/>
<path opacity="0.1" d="M562.135 185.362C562.135 185.362 569.935 204.632 575.44 207.843C580.946 211.055 578.193 225.736 578.193 225.736L564.429 245.006H553.418L540.113 222.066C540.113 222.066 539.195 206.926 536.443 203.255C533.69 199.585 562.135 185.362 562.135 185.362Z" fill="black"/>
<path d="M573.605 224.819L594.251 229.407L609.391 381.726C609.391 381.726 601.133 383.103 592.874 394.114C584.616 405.125 574.523 403.29 569.476 400.537C564.429 397.784 544.242 389.984 543.783 386.773C543.325 383.561 544.701 327.13 544.701 327.13L531.855 239.041L538.278 229.407H549.748L558.924 237.206L573.605 224.819Z" fill="#F9A826"/>
<path d="M542.407 209.22C555.583 209.22 566.264 198.538 566.264 185.362C566.264 172.186 555.583 161.505 542.407 161.505C529.231 161.505 518.55 172.186 518.55 185.362C518.55 198.538 529.231 209.22 542.407 209.22Z" fill="#FFB9B9"/>
<path d="M576.817 217.019C576.817 217.019 621.778 221.607 625.908 231.242C630.037 240.876 623.155 283.544 623.155 283.544C623.155 283.544 639.671 320.707 639.213 329.424C638.754 338.141 654.812 397.784 637.377 390.902C619.943 384.02 625.449 366.127 616.732 378.973C608.015 391.82 604.344 389.984 604.344 389.984C604.344 389.984 595.627 404.207 592.874 402.831C590.122 401.454 588.286 390.902 594.251 385.855C600.215 380.809 599.297 372.092 587.828 355.575C576.358 339.058 564.429 252.346 571.311 239.041C578.193 225.736 576.817 217.019 576.817 217.019Z" fill="#575A89"/>
<path d="M623.614 393.196L615.814 400.537L606.179 394.114L610.309 384.479L623.614 393.196Z" fill="#FFB9B9"/>
<path d="M543.783 224.819C543.783 224.819 508.915 237.665 508.915 251.429C508.915 265.193 530.02 325.295 530.02 325.295C530.02 325.295 530.02 340.894 529.102 344.564C528.184 348.234 513.749 380.247 526.349 383.103C534.214 384.885 540.676 389.569 541.26 396.178C541.953 404.027 535.945 413.934 536.443 415.677C537.36 418.889 542.866 423.476 542.407 421.182C541.948 418.889 546.077 385.855 552.5 371.174C558.924 356.493 549.748 257.852 547.913 245.006C547.027 238.186 545.647 231.439 543.783 224.819V224.819Z" fill="#575A89"/>
<path d="M525.432 392.278L533.69 412.007L539.884 399.39L532.772 383.561L525.432 392.278Z" fill="#FFB9B9"/>
<path d="M569.284 200.143C569.284 200.143 576.817 203.255 581.404 203.255C585.992 203.255 604.803 212.89 598.38 218.854C591.957 224.819 582.322 226.195 577.734 234.912C573.146 243.629 570.852 245.006 570.852 245.006L562.684 234.033C562.684 234.033 574.064 221.148 573.605 217.019C573.146 212.89 569.284 200.143 569.284 200.143Z" fill="#F9A826"/>
<path d="M538.874 211.174C538.874 211.174 533.231 213.349 531.855 217.019C530.478 220.69 521.761 227.571 525.432 229.407C529.102 231.242 545.16 238.582 548.371 239.959C551.583 241.335 557.568 236.054 557.568 236.054C557.568 236.054 549.518 231.471 549.518 228.26C549.518 225.048 538.874 211.174 538.874 211.174Z" fill="#F9A826"/>
<path d="M519.926 245.006L508.915 247.758C508.915 247.758 493.775 315.66 498.363 332.635C502.951 349.611 524.514 400.537 524.514 400.537L538.278 384.479C538.278 384.479 532.274 347.964 528.853 345.576C525.432 343.188 527.726 338.141 527.726 336.764C527.726 335.388 529.102 336.306 525.891 333.094C522.679 329.883 537.819 311.99 533.69 306.943C529.561 301.896 519.926 245.006 519.926 245.006Z" fill="#575A89"/>
<path opacity="0.1" d="M628.431 257.622L621.778 232.618C621.778 232.618 639.671 245.464 643.342 264.275C647.012 283.086 661.235 320.707 652.059 337.223C642.883 353.74 626.825 401.454 621.32 400.537C615.814 399.619 602.509 388.149 602.05 386.314C601.591 384.479 625.907 342.27 622.237 339.058C618.567 335.847 619.484 327.589 622.237 325.753C624.99 323.918 628.201 315.201 625.907 315.66C623.614 316.119 616.732 311.531 618.108 306.484C619.484 301.437 611.226 267.487 611.226 267.487L628.431 257.622Z" fill="black"/>
<path d="M619.484 229.407L625.907 231.242C625.907 231.242 643.801 244.088 647.471 262.899C651.141 281.709 665.364 319.33 656.188 335.847C647.012 352.363 630.954 400.078 625.449 399.16C619.943 398.243 606.638 386.773 606.179 384.938C605.721 383.103 630.037 340.894 626.366 337.682C622.696 334.47 623.614 326.212 626.366 324.377C629.119 322.542 632.331 313.825 630.037 314.284C627.743 314.742 620.861 310.154 622.237 305.108C623.614 300.061 615.355 266.11 615.355 266.11L619.484 229.407Z" fill="#575A89"/>
<path d="M560.921 163.827L565.395 162.2C565.395 162.2 556.039 152.844 543.022 153.658L546.684 149.997C546.684 149.997 537.734 146.743 529.599 155.285C525.322 159.776 520.374 165.054 517.289 171H512.497L514.497 175L507.497 179L514.682 178.282C514.001 181.735 514.235 185.306 515.361 188.641L516.988 193.116C516.988 193.116 523.497 180.099 523.497 178.472V182.539C523.497 182.539 527.972 178.878 527.972 176.438L530.412 179.285L531.633 174.811L546.684 179.285L544.243 175.624L553.599 176.844L549.938 172.37C549.938 172.37 560.514 177.658 560.921 182.133C561.328 186.607 566.616 192.302 566.616 192.302L569.056 188.234C569.056 188.234 572.717 169.929 560.921 163.827Z" fill="#2F2E41"/>
<path d="M559.997 188C561.93 188 563.497 185.538 563.497 182.5C563.497 179.462 561.93 177 559.997 177C558.064 177 556.497 179.462 556.497 182.5C556.497 185.538 558.064 188 559.997 188Z" fill="#FFB9B9"/>
</svg>
